# xmcd CD database file
#
# Track frame offsets:
#	150
#	13013
#	22853
#	35142
#	47855
#	60527
#	72685
#	86417
#	97289
#	108406
#	117514
#	128783
#	141167
#	151337
#	161909
#	172065
#	185344
#	196927
#	206370
#	220158
#
# Disc length: 3050 seconds
#
# Revision: 1
# Processed by: cddbd v1.5.2PL0 Copyright (c) Steve Scherf et al.
# Submitted via: CDex 1.51
#
DISCID=280be814
DTITLE=Various Artist - Northern Soul: The Ultimate Collection [Union Square] CD3
DYEAR=2018
DGENRE=Soul/R&B
TTITLE0=Dobie Gray - The "In" Crowd
TTITLE1=Benny Spellman - Fortune Teller
TTITLE2=Stevie Wonder - Nothing's Too Good For My Baby
TTITLE3=The Miracles - Going To A Go Go
TTITLE4=Shorty Long - Function At The Junction
TTITLE5=The Supremes - Nothing But Heartaches
TTITLE6=The Contours - Baby Hit And Run
TTITLE7=Maurice Williams - Being Without You
TTITLE8=Vernon Garrett - If I Could Turn Back The Hands Of Time
TTITLE9=Lorraine Silver - Lost Summer Love
TTITLE10=Gwen Davis - My Man Don't Think I Know
TTITLE11=Bobby Taylor - Oh, I've Been Bless'd
TTITLE12=The Sweethearts - Beauty Is Just Skin Deep
TTITLE13=Fork In The Road - Skeletons In The Closet
TTITLE14=Wigan's Ovation - Per-so-nally
TTITLE15=Barbara McNair - You're Gonna Love My Baby
TTITLE16=Patrice Holloway - For The Love Of Mike
TTITLE17=Wilson Pickett - Baby Don't You Weep
TTITLE18=Diana Ross and The Supremes - Stormy
TTITLE19=The Ferris Wheel - Number One Guy
EXTD=YEAR: 2018
EXTT0=
EXTT1=
EXTT2=
EXTT3=
EXTT4=
EXTT5=
EXTT6=
EXTT7=
EXTT8=
EXTT9=
EXTT10=
EXTT11=
EXTT12=
EXTT13=
EXTT14=
EXTT15=
EXTT16=
EXTT17=
EXTT18=
EXTT19=
PLAYORDER=
